<svg width="39" height="45" viewBox="0 0 39 45" fill="none" xmlns="http://www.w3.org/2000/svg">
<path d="M10.3575 12.0605C9.3462 14.1577 7.17754 14.49 5.28944 13.5796C3.40134 12.6691 1.17383 9.46681 1.86186 7.24564C2.57723 4.9362 6.05801 3.57595 8.61509 5.35065C10.6241 6.74499 11.3688 9.96328 10.3575 12.0605Z" fill="white"/>
<path d="M17.0665 11.3078C15.6186 11.9458 13.3827 11.7103 12.412 10.5033C11.3616 8.65328 10.5726 5.40061 12.2106 3.68279C13.9138 1.8967 18.2659 1.56078 19.4222 4.57373C20.3306 6.94094 18.8053 10.8174 17.0665 11.3078Z" fill="white"/>
<path d="M28.4046 19.3238C27.3342 18.34 26.7732 16.1945 27.518 14.6962C28.8104 12.7958 31.4478 10.4126 33.5497 11.0146C35.7352 11.6406 37.5376 15.4093 35.2414 18.0021C33.4373 20.0393 29.4433 20.6467 28.4046 19.3238Z" fill="white"/>
<path d="M25.2669 13.7792C23.3254 14.4739 20.7709 13.6589 20.1107 11.5644C19.4505 9.46997 20.7447 6.68973 22.8038 5.3606C24.9447 3.97867 27.813 4.4006 29.2038 7.28639C30.1997 9.35285 26.9068 13.1925 25.2669 13.7792Z" fill="white"/>
<path d="M5.87202 16.9997C9.87211 13.4999 15.5792 12.8826 20.872 14.9997C28.3717 17.9995 27.7891 24.8431 27.789 26.8434C27.789 28.3434 27.2889 30.8435 25.289 33.3434C23.689 35.3434 21.789 36.3435 17.789 36.8434L12.372 36.9997V40.4997C12.372 40.4997 12.3719 43.4994 11.872 43.9997C10.872 44.9997 10.372 44.9997 8.87202 44.9997C4.34436 44.9996 4.37202 42.4997 4.37202 42.4997C4.36941 42.4475 3.87081 32.4866 3.37202 27.4997C2.76666 21.4473 3.58312 19.0024 5.87202 16.9997ZM15.872 22.9997C14.2153 22.9997 12.8722 24.343 12.872 25.9997C12.872 27.6566 14.2152 28.9997 15.872 28.9997C17.5288 28.9996 18.872 27.6565 18.872 25.9997C18.8718 24.3431 17.5287 22.9998 15.872 22.9997Z" fill="white"/>
</svg>
