<svg width="39" height="45" viewBox="0 0 39 45" fill="none" xmlns="http://www.w3.org/2000/svg">
<path d="M10.3575 12.0605C9.3462 14.1577 7.17754 14.49 5.28944 13.5796C3.40134 12.6691 1.17383 9.46681 1.86186 7.24564C2.57723 4.9362 6.05801 3.57595 8.61509 5.35065C10.6241 6.74499 11.3688 9.96328 10.3575 12.0605Z" fill="black"/>
<path d="M17.0665 11.3078C15.6186 11.9458 13.3827 11.7103 12.412 10.5033C11.3616 8.65328 10.5726 5.40061 12.2106 3.68279C13.9138 1.8967 18.2659 1.56078 19.4222 4.57373C20.3306 6.94094 18.8053 10.8174 17.0665 11.3078Z" fill="black"/>
<path d="M28.4046 19.3238C27.3342 18.34 26.7732 16.1945 27.518 14.6962C28.8104 12.7958 31.4478 10.4126 33.5497 11.0146C35.7352 11.6406 37.5376 15.4093 35.2414 18.0021C33.4373 20.0393 29.4433 20.6467 28.4046 19.3238Z" fill="black"/>
<path d="M25.2669 13.7792C23.3254 14.4739 20.7709 13.6589 20.1107 11.5644C19.4505 9.46997 20.7447 6.68973 22.8038 5.3606C24.9447 3.97867 27.813 4.4006 29.2038 7.28639C30.1997 9.35285 26.9068 13.1925 25.2669 13.7792Z" fill="black"/>
<path d="M5.87151 16.9993C9.87159 13.4994 15.5786 12.8832 20.8715 15.0003C28.3709 17.9999 27.7886 24.8425 27.7885 26.8431C27.7885 28.343 27.2891 30.8432 25.2895 33.3431C23.6895 35.343 21.7892 36.3431 17.7895 36.8431L12.3715 36.9993V40.4993C12.3715 40.4993 12.3715 43.4993 11.8715 43.9993C10.8715 44.9993 10.3715 44.9993 8.87151 44.9993C4.34428 44.999 4.37151 42.4993 4.37151 42.4993C4.36781 42.4255 3.86976 32.4807 3.37151 27.4993C2.7662 21.447 3.58264 19.002 5.87151 16.9993ZM15.8715 23.0003C14.2148 23.0004 12.8715 24.3435 12.8715 26.0003C12.8717 27.6569 14.2149 29.0001 15.8715 29.0003C17.5282 29.0003 18.8713 27.657 18.8715 26.0003C18.8715 24.3434 17.5284 23.0003 15.8715 23.0003Z" fill="black"/>
</svg>
