<svg width="200" height="46" viewBox="0 0 200 46" fill="none" xmlns="http://www.w3.org/2000/svg">
<path d="M193.123 15.1601C193.336 14.7601 193.696 14.4801 194.203 14.3201C194.71 14.1601 195.376 14.0801 196.203 14.0801C197.056 14.0801 197.736 14.1601 198.243 14.3201C198.75 14.4801 199.096 14.7601 199.283 15.1601C199.496 15.5601 199.616 15.9201 199.643 16.2401C199.696 16.5334 199.723 16.9867 199.723 17.6001V41.4801C199.723 42.0934 199.696 42.5601 199.643 42.8801C199.616 43.1734 199.496 43.5067 199.283 43.8801C198.883 44.6001 197.75 44.9601 195.883 44.9601C194.043 44.9601 193.016 44.3067 192.803 43.0001C191.683 44.2801 190.123 44.9201 188.123 44.9201C185.723 44.9201 183.536 43.8801 181.563 41.8001C179.59 39.6934 178.603 37.2534 178.603 34.4801C178.603 31.6801 179.59 29.2267 181.563 27.1201C183.563 25.0134 185.75 23.9601 188.123 23.9601C190.096 23.9601 191.63 24.6267 192.723 25.9601V17.5601C192.723 16.9467 192.736 16.4934 192.763 16.2001C192.816 15.8801 192.936 15.5334 193.123 15.1601ZM186.643 36.8801C187.336 37.6001 188.176 37.9601 189.163 37.9601C190.15 37.9601 190.963 37.6001 191.603 36.8801C192.27 36.1601 192.603 35.3734 192.603 34.5201C192.603 33.6401 192.283 32.8267 191.643 32.0801C191.03 31.3334 190.19 30.9601 189.123 30.9601C188.056 30.9601 187.203 31.3334 186.563 32.0801C185.923 32.8001 185.603 33.6001 185.603 34.4801C185.603 35.3601 185.95 36.1601 186.643 36.8801Z" fill="black"/>
<path d="M176.253 24.16C176.759 24.32 177.173 24.6 177.493 25C177.839 25.3733 178.013 25.9866 178.013 26.84C178.013 27.6933 177.759 28.6266 177.253 29.64C176.746 30.6533 176.013 31.16 175.053 31.16C174.573 31.16 174.106 31.0533 173.653 30.84C173.226 30.6266 172.653 30.52 171.933 30.52C171.213 30.52 170.533 30.7733 169.893 31.28C169.279 31.7866 168.973 32.4 168.973 33.12V41.52C168.973 42.1333 168.946 42.6 168.893 42.92C168.866 43.2133 168.746 43.56 168.533 43.96C168.133 44.6533 167.093 45 165.413 45C164.133 45 163.213 44.7733 162.653 44.32C162.226 43.9466 161.986 43.3733 161.933 42.6C161.933 42.3333 161.933 41.9466 161.933 41.44V27.4C161.933 26.7866 161.946 26.3333 161.973 26.04C162.026 25.72 162.146 25.3733 162.333 25C162.706 24.28 163.746 23.92 165.453 23.92C167.053 23.92 168.053 24.2266 168.453 24.84C168.746 25.2666 168.893 25.7066 168.893 26.16C169.026 25.9733 169.213 25.7466 169.453 25.48C169.719 25.2133 170.266 24.8533 171.093 24.4C171.919 23.9466 172.639 23.72 173.253 23.72C173.893 23.72 174.426 23.76 174.853 23.84C175.279 23.8933 175.746 24 176.253 24.16Z" fill="black"/>
<path d="M151.784 26.1599C151.944 24.6666 152.998 23.9199 154.944 23.9199C155.984 23.9199 156.758 23.9999 157.264 24.1599C157.771 24.3199 158.118 24.5999 158.304 24.9999C158.518 25.3999 158.638 25.7599 158.664 26.0799C158.718 26.3733 158.744 26.8266 158.744 27.4399V41.4399C158.744 42.0533 158.718 42.5199 158.664 42.8399C158.638 43.1333 158.531 43.4799 158.344 43.8799C157.971 44.5733 157.051 44.9199 155.584 44.9199C154.144 44.9199 153.171 44.7466 152.664 44.3999C152.184 44.0266 151.904 43.4933 151.824 42.7999C150.838 44.2133 149.184 44.9199 146.864 44.9199C144.571 44.9199 142.438 43.8666 140.464 41.7599C138.491 39.6533 137.504 37.2133 137.504 34.4399C137.504 31.6399 138.491 29.1999 140.464 27.1199C142.464 25.0133 144.651 23.9599 147.024 23.9599C147.931 23.9599 148.758 24.1199 149.504 24.4399C150.251 24.7599 150.771 25.0666 151.064 25.3599C151.358 25.6266 151.598 25.8933 151.784 26.1599ZM144.504 34.4799C144.504 35.3599 144.851 36.1599 145.544 36.8799C146.238 37.5733 147.078 37.9199 148.064 37.9199C149.051 37.9199 149.864 37.5599 150.504 36.8399C151.171 36.1199 151.504 35.3333 151.504 34.4799C151.504 33.5999 151.184 32.7866 150.544 32.0399C149.931 31.2933 149.091 30.9199 148.024 30.9199C146.984 30.9199 146.131 31.2933 145.464 32.0399C144.824 32.7866 144.504 33.5999 144.504 34.4799Z" fill="black"/>
<path d="M123.207 44.9199C120.513 44.9199 118.273 43.9065 116.487 41.8799C114.727 39.8265 113.847 37.3332 113.847 34.3999V27.3999C113.847 26.7599 113.86 26.2932 113.887 25.9999C113.94 25.7065 114.06 25.3599 114.247 24.9599C114.62 24.2399 115.66 23.8799 117.367 23.8799C119.233 23.8799 120.327 24.3865 120.647 25.3999C120.807 25.8265 120.887 26.5065 120.887 27.4399V34.4399C120.887 35.5332 121.193 36.3865 121.807 36.9999C122.447 37.6132 123.287 37.9199 124.327 37.9199C125.393 37.9199 126.247 37.5999 126.887 36.9599C127.553 36.3199 127.887 35.4799 127.887 34.4399V27.3599C127.887 26.7465 127.9 26.2932 127.927 25.9999C127.98 25.6799 128.113 25.3199 128.327 24.9199C128.673 24.2265 129.7 23.8799 131.407 23.8799C133.087 23.8799 134.113 24.2399 134.487 24.9599C134.673 25.3599 134.78 25.7199 134.807 26.0399C134.86 26.3332 134.887 26.7865 134.887 27.3999V41.5599C134.887 42.1465 134.86 42.5999 134.807 42.9199C134.78 43.2132 134.66 43.5465 134.447 43.9199C134.047 44.6132 133.02 44.9599 131.367 44.9599C129.74 44.9599 128.74 44.6399 128.367 43.9999C128.1 43.5465 127.967 42.9999 127.967 42.3599C127.86 42.5465 127.62 42.8132 127.247 43.1599C126.873 43.5065 126.513 43.7999 126.167 44.0399C125.26 44.6265 124.273 44.9199 123.207 44.9199Z" fill="black"/>
<path d="M100.572 27.3199H107.612C109.052 27.3732 109.932 27.7466 110.252 28.4399C110.519 28.9466 110.652 29.6932 110.652 30.6799V39.4799C110.652 40.3332 110.279 41.1466 109.532 41.9199C107.292 44.2399 103.932 45.3999 99.4519 45.3999C95.4786 45.3999 92.0252 43.9066 89.0919 40.9199C86.1586 37.9066 84.6919 34.2799 84.6919 30.0399C84.6919 25.7999 86.1852 22.2666 89.1719 19.4399C92.1586 16.5866 95.6786 15.1599 99.7319 15.1599C102.879 15.1599 105.852 16.1999 108.652 18.2799C109.372 18.8132 109.732 19.4132 109.732 20.0799C109.732 20.7199 109.425 21.4666 108.812 22.3199C107.772 23.7332 106.825 24.4399 105.972 24.4399C105.465 24.4399 104.652 24.0799 103.532 23.3599C102.412 22.6132 101.079 22.2399 99.5319 22.2399C97.5052 22.2399 95.7052 22.9599 94.1319 24.3999C92.5586 25.8132 91.7719 27.6799 91.7719 29.9999C91.7719 32.2932 92.5719 34.2532 94.1719 35.8799C95.7719 37.4799 97.5852 38.2799 99.6119 38.2799C101.079 38.2799 102.399 38.0399 103.572 37.5599V33.1999H100.412C99.5852 33.1999 98.9986 33.0932 98.6519 32.8799C98.3052 32.6666 98.0786 32.3599 97.9719 31.9599C97.8652 31.5332 97.8119 30.9732 97.8119 30.2799C97.8119 29.5599 97.8652 28.9866 97.9719 28.5599C98.1052 28.1332 98.3319 27.8399 98.6519 27.6799C99.1319 27.4399 99.7719 27.3199 100.572 27.3199Z" fill="black"/>
<path d="M80.5332 24.0799C82.2399 24.8266 83.0932 25.7466 83.0932 26.8399C83.0932 27.2933 82.8799 28.0266 82.4532 29.0399C82.0266 30.0266 81.6666 30.8933 81.3732 31.6399L76.9732 42.3599C76.5732 43.5333 75.9066 44.3599 74.9732 44.8399C74.5732 45.0266 74.0666 45.1199 73.4532 45.1199C72.8399 45.1199 72.2399 44.8933 71.6532 44.4399C71.0932 43.9599 70.7199 43.4799 70.5332 42.9999L70.2132 42.3199C69.9999 41.7866 69.2132 39.7066 67.8532 36.0799C67.5866 36.7199 67.1866 37.7733 66.6532 39.2399C66.1466 40.6799 65.8132 41.5866 65.6532 41.9599C65.5199 42.3066 65.4266 42.5466 65.3732 42.6799C65.3466 42.7866 65.2399 42.9999 65.0532 43.3199C64.8666 43.6399 64.6532 43.9199 64.4132 44.1599C63.7732 44.7999 63.0399 45.1199 62.2132 45.1199C61.3866 45.1199 60.6932 44.8933 60.1332 44.4399C59.5732 43.9599 59.1999 43.4799 59.0132 42.9999L52.9732 28.2799C52.7066 27.4799 52.5732 26.9599 52.5732 26.7199C52.5732 25.6533 53.3332 24.8133 54.8532 24.1999C55.7066 23.8533 56.3999 23.6799 56.9332 23.6799C57.4666 23.6799 57.8932 23.7999 58.2132 24.0399C58.5599 24.2533 58.7999 24.4799 58.9332 24.7199C59.0666 24.9333 59.1732 25.1599 59.2532 25.3999C59.7066 26.4666 60.6532 28.9733 62.0932 32.9199L64.4532 26.4399C64.6132 25.9066 64.9066 25.4399 65.3332 25.0399C66.1066 24.2666 66.8932 23.8799 67.6932 23.8799C68.4932 23.8799 69.1732 24.0933 69.7332 24.5199C70.3199 24.9466 70.7199 25.3733 70.9332 25.7999L71.2532 26.4799C72.5866 30.2133 73.3732 32.3466 73.6132 32.8799L76.0532 26.2399C76.6932 24.5333 77.6532 23.6799 78.9332 23.6799C79.4399 23.6799 79.9732 23.8133 80.5332 24.0799Z" fill="black"/>
<path d="M43.425 26.1599C43.585 24.6666 44.6384 23.9199 46.585 23.9199C47.625 23.9199 48.3984 23.9999 48.905 24.1599C49.4117 24.3199 49.7584 24.5999 49.945 24.9999C50.1584 25.3999 50.2784 25.7599 50.305 26.0799C50.3584 26.3733 50.385 26.8266 50.385 27.4399V41.4399C50.385 42.0533 50.3584 42.5199 50.305 42.8399C50.2784 43.1333 50.1717 43.4799 49.985 43.8799C49.6117 44.5733 48.6917 44.9199 47.225 44.9199C45.785 44.9199 44.8117 44.7466 44.305 44.3999C43.825 44.0266 43.545 43.4933 43.465 42.7999C42.4784 44.2133 40.825 44.9199 38.505 44.9199C36.2117 44.9199 34.0784 43.8666 32.105 41.7599C30.1317 39.6533 29.145 37.2133 29.145 34.4399C29.145 31.6399 30.1317 29.1999 32.105 27.1199C34.105 25.0133 36.2917 23.9599 38.665 23.9599C39.5717 23.9599 40.3984 24.1199 41.145 24.4399C41.8917 24.7599 42.4117 25.0666 42.705 25.3599C42.9984 25.6266 43.2384 25.8933 43.425 26.1599ZM36.145 34.4799C36.145 35.3599 36.4917 36.1599 37.185 36.8799C37.8784 37.5733 38.7184 37.9199 39.705 37.9199C40.6917 37.9199 41.505 37.5599 42.145 36.8399C42.8117 36.1199 43.145 35.3333 43.145 34.4799C43.145 33.5999 42.825 32.7866 42.185 32.0399C41.5717 31.2933 40.7317 30.9199 39.665 30.9199C38.625 30.9199 37.7717 31.2933 37.105 32.0399C36.465 32.7866 36.145 33.5999 36.145 34.4799Z" fill="black"/>
<path d="M10.3575 12.0605C9.3462 14.1577 7.17754 14.49 5.28944 13.5796C3.40134 12.6691 1.17383 9.46681 1.86186 7.24564C2.57723 4.9362 6.05801 3.57595 8.61509 5.35065C10.6241 6.74499 11.3688 9.96328 10.3575 12.0605Z" fill="black"/>
<path d="M17.0665 11.3078C15.6186 11.9458 13.3827 11.7103 12.412 10.5033C11.3616 8.65328 10.5726 5.40061 12.2106 3.68279C13.9138 1.8967 18.2659 1.56078 19.4222 4.57373C20.3306 6.94094 18.8053 10.8174 17.0665 11.3078Z" fill="black"/>
<path d="M28.4046 19.3238C27.3342 18.34 26.7732 16.1945 27.518 14.6962C28.8104 12.7958 31.4478 10.4126 33.5497 11.0146C35.7352 11.6406 37.5376 15.4093 35.2414 18.0021C33.4373 20.0393 29.4433 20.6467 28.4046 19.3238Z" fill="black"/>
<path d="M25.2669 13.7792C23.3254 14.4739 20.7709 13.6589 20.1107 11.5644C19.4505 9.46997 20.7447 6.68973 22.8038 5.3606C24.9447 3.97867 27.813 4.4006 29.2038 7.28639C30.1997 9.35285 26.9068 13.1925 25.2669 13.7792Z" fill="black"/>
<path d="M5.87154 16.9997C9.87165 13.4999 15.5786 12.8826 20.8715 14.9997C28.3714 17.9996 27.7885 24.8434 27.7885 26.8435C27.7885 28.3435 27.2885 30.8435 25.2885 33.3435C23.6885 35.3435 21.7886 36.3435 17.7885 36.8435L12.3715 36.9997V40.4997C12.3715 40.5041 12.3712 43.5001 11.8715 43.9997C10.8716 44.9997 10.3715 44.9998 8.87154 44.9997C4.34767 44.9996 4.3715 42.5039 4.37154 42.4997C4.37154 42.4997 3.87165 32.4997 3.37154 27.4997C2.76616 21.4472 3.58262 19.0024 5.87154 16.9997ZM15.8715 22.9997C14.2148 22.9997 12.8716 24.343 12.8715 25.9997C12.8715 27.6566 14.2147 28.9997 15.8715 28.9997C17.5283 28.9996 18.8715 27.6565 18.8715 25.9997C18.8714 24.343 17.5283 22.9998 15.8715 22.9997Z" fill="black"/>
</svg>
