<svg width="84" height="60" viewBox="0 0 84 60" fill="none" xmlns="http://www.w3.org/2000/svg">
<path d="M83.7755 54.8657H0.22447C0.100499 54.8657 0 54.9662 0 55.0902V57.9693C0 58.0933 0.100499 58.1938 0.22447 58.1938H83.7755C83.8995 58.1938 84 58.0933 84 57.9693V55.0902C84 54.9662 83.8995 54.8657 83.7755 54.8657Z" fill="white"/>
<path d="M47.0577 55.7529C47.0577 58.0984 44.7926 60.0001 41.999 60.0001C39.2055 60.0001 36.9404 58.0984 36.9404 55.7529" fill="white"/>
<path d="M0.701666 55.3337L0.00708008 55.0194L9.57034 33.854C9.94051 33.0358 10.7596 32.5063 11.6575 32.5063H14.7619V33.2687H11.6575C11.0586 33.2687 10.5114 33.6219 10.2649 34.1674L0.701666 55.3337Z" fill="white"/>
<path d="M41.0319 56.8502C38.1519 55.0078 34.6892 53.65 30.7419 52.814C27.5095 52.1295 23.9349 51.7873 20.1164 51.8034C13.2671 51.828 7.7494 52.9817 6.71345 53.2129C6.52625 53.2544 6.33397 53.1892 6.21115 53.041C6.08832 52.8927 6.05952 52.6911 6.13491 52.5141L15.3839 30.6626L19.2702 30.8125L19.2406 31.574L15.8803 31.4444L7.02517 52.3659C10.77 51.5891 29.1333 48.3347 41.4427 56.2081L41.0319 56.8502Z" fill="white"/>
<path d="M41.2467 57.649C41.2467 57.6143 41.2442 56.968 41.2408 55.9083C40.968 55.5797 40.6072 55.1714 40.1582 54.7157C39.1028 53.6433 37.3282 52.0788 34.8684 50.7176C32.107 49.1887 29.0601 48.2205 25.8125 47.8384C21.7458 47.3607 17.347 47.8071 12.739 49.1658C12.4731 49.2446 12.1918 49.1658 12.0046 48.9608C11.8183 48.7558 11.7658 48.4695 11.8691 48.212L20.4718 26.8086L35.1022 28.3884C36.9801 28.5908 38.692 29.3379 40.0532 30.5475C41.3805 31.7274 42.0387 33.0438 42.0099 34.4584C41.9506 37.3527 41.9862 50.5372 42.0031 55.6305C42.3233 56.0303 42.4919 56.2827 42.5164 56.3192L42.0065 56.6571C42.0082 57.2645 42.0099 57.6202 42.0099 57.6457L41.2476 57.649H41.2467ZM22.5895 46.8906C23.7237 46.8906 24.8375 46.955 25.9285 47.0846C29.2795 47.4818 32.4229 48.4856 35.2733 50.0696C38.116 51.6494 40.0786 53.4705 41.2374 54.7386C41.2196 49.1412 41.1908 37.1884 41.2476 34.4431C41.2721 33.2615 40.6995 32.1425 39.5467 31.1176C38.3049 30.0139 36.7404 29.332 35.0208 29.1465L20.9648 27.6285L12.612 48.4085C16.0654 47.3988 19.4088 46.8906 22.5903 46.8906H22.5895Z" fill="white"/>
<path d="M83.2844 55.3338L73.7211 34.1684C73.4746 33.6221 72.9274 33.2697 72.3286 33.2697H69.2241V32.5073H72.3286C73.2265 32.5073 74.0464 33.0359 74.4157 33.855L83.979 55.0204L83.2844 55.3346V55.3338Z" fill="white"/>
<path d="M42.9582 56.8502L42.5474 56.2081C54.8576 48.3347 73.2226 51.59 76.9649 52.3659L68.1098 31.4444L64.7495 31.574L64.7199 30.8125L68.6062 30.6626L77.856 52.5158C77.9314 52.6911 77.9018 52.8927 77.779 53.041C77.6561 53.1884 77.4639 53.2544 77.2767 53.2121C75.104 52.7276 55.6784 48.7142 42.9582 56.8493V56.8502ZM77.1547 52.8131C77.1547 52.8131 77.1547 52.814 77.1547 52.8148V52.8131Z" fill="white"/>
<path d="M42.7462 57.6482L41.9838 57.6448C41.9838 57.6194 41.9855 57.2628 41.9872 56.6563L41.4773 56.3192C41.5019 56.2819 41.6704 56.0303 41.9906 55.6305C42.0076 50.5372 42.0431 37.3536 41.9838 34.4584C41.955 33.0438 42.6132 31.7274 43.9405 30.5475C45.3018 29.3379 47.0137 28.5908 48.8916 28.3884L63.5219 26.8086L72.1246 48.2112C72.228 48.4695 72.1754 48.7558 71.9891 48.9608C71.8019 49.1658 71.5207 49.2446 71.2547 49.1658C66.6365 47.8046 62.2293 47.359 58.1541 47.8418C54.9023 48.2273 51.8529 49.2005 49.0898 50.7362C46.6325 52.1017 44.8621 53.6679 43.8092 54.7411C43.3713 55.1875 43.0189 55.5865 42.7521 55.9075C42.7487 56.9663 42.7462 57.6135 42.7462 57.6482ZM63.0289 27.6277L48.9729 29.1456C47.2534 29.3311 45.6889 30.013 44.4471 31.1167C43.2942 32.1417 42.7216 33.2606 42.7462 34.4423C42.8029 37.1876 42.7733 49.1404 42.7563 54.7377C43.9151 53.4697 45.8777 51.6485 48.7205 50.0688C51.5708 48.4848 54.7142 47.4802 58.0652 47.0837C62.2175 46.5916 66.6967 47.0371 71.3826 48.4077L63.0298 27.6277H63.0289Z" fill="white"/>
<path d="M42.571 34.606H41.6206V56.0416H42.571V34.606Z" fill="white"/>
<path d="M22.8909 1.06006H23.7091V6.37788H26.767V7.09703H22.8917V1.06006H22.8909Z" fill="white"/>
<path d="M27.7605 1.06006H28.5864V7.09787H27.7605V1.06006Z" fill="white"/>
<path d="M29.8872 1.06006H32.4809C33.1882 1.06006 33.6905 1.27098 33.9895 1.69281C34.1648 1.94184 34.2521 2.22984 34.2521 2.55596C34.2521 2.93713 34.1437 3.24885 33.9277 3.4928C33.815 3.62156 33.6541 3.7393 33.4423 3.84603C33.7515 3.96377 33.9836 4.09675 34.1369 4.24499C34.4079 4.50842 34.5435 4.87096 34.5435 5.3343C34.5435 5.7231 34.4215 6.07548 34.1775 6.39058C33.8133 6.86155 33.2339 7.09787 32.4394 7.09787H29.8872V1.06006ZM32.176 3.61224C32.5216 3.61224 32.7901 3.56396 32.9815 3.46824C33.2831 3.31746 33.4338 3.0464 33.4338 2.65422C33.4338 2.26203 33.2737 1.99436 32.9527 1.85714C32.7723 1.78006 32.5029 1.74194 32.1472 1.74194H30.6885V3.61224H32.176ZM32.4521 6.39905C32.9535 6.39905 33.311 6.25421 33.5245 5.96367C33.6583 5.77985 33.7261 5.55793 33.7261 5.29788C33.7261 4.85995 33.5304 4.56094 33.1382 4.40169C32.9298 4.31699 32.6545 4.27464 32.3123 4.27464H30.6885V6.39905H32.4512H32.4521Z" fill="white"/>
<path d="M35.6197 1.06006H38.4142C38.8741 1.06006 39.2536 1.12698 39.5526 1.26166C40.1201 1.51916 40.4031 1.99436 40.4031 2.6881C40.4031 3.04979 40.3285 3.34542 40.1794 3.57581C40.0303 3.80621 39.8211 3.99087 39.5526 4.13064C39.7881 4.22635 39.966 4.35257 40.0846 4.50842C40.204 4.66428 40.2701 4.9184 40.2836 5.26908L40.3124 6.07887C40.3209 6.30926 40.3395 6.48037 40.37 6.59218C40.4191 6.78362 40.5072 6.90729 40.6326 6.96234V7.09787H39.6297C39.6026 7.0462 39.5806 6.97844 39.5636 6.89627C39.5475 6.81411 39.5331 6.65486 39.5221 6.41938L39.473 5.41223C39.4535 5.0175 39.307 4.75322 39.0334 4.61939C38.8775 4.54569 38.6319 4.50842 38.2973 4.50842H36.4354V7.09787H35.6172V1.06006H35.6197ZM38.3286 3.8257C38.7123 3.8257 39.0156 3.74861 39.2392 3.5953C39.4628 3.44198 39.5738 3.16499 39.5738 2.76518C39.5738 2.33488 39.4179 2.0418 39.1054 1.88594C38.9385 1.80377 38.7149 1.76227 38.4353 1.76227H36.438V3.8257H38.3286Z" fill="white"/>
<path d="M46.5829 1.92383C46.9827 2.45833 47.1826 3.1419 47.1826 3.97456C47.1826 4.87582 46.9539 5.62547 46.4965 6.22264C45.9594 6.924 45.1937 7.27469 44.1993 7.27469C43.27 7.27469 42.5399 6.96805 42.0088 6.35394C41.5344 5.76184 41.2981 5.01389 41.2981 4.11008C41.2981 3.29352 41.5005 2.5947 41.9063 2.01362C42.4272 1.26821 43.1972 0.895508 44.2162 0.895508C45.2352 0.895508 46.0713 1.23772 46.5837 1.92299L46.5829 1.92383ZM45.8612 5.76862C46.1831 5.25192 46.344 4.65813 46.344 3.98726C46.344 3.27743 46.1585 2.70651 45.7875 2.27367C45.4165 1.84082 44.9082 1.62398 44.2645 1.62398C43.6207 1.62398 43.1303 1.83828 42.7355 2.26689C42.3408 2.6955 42.1435 3.32825 42.1435 4.16345C42.1435 4.83178 42.3129 5.39592 42.6508 5.85502C42.9888 6.31412 43.5377 6.54368 44.2967 6.54368C45.0556 6.54368 45.5385 6.28532 45.8603 5.76862H45.8612Z" fill="white"/>
<path d="M50.5332 1.06006H52.9787C53.8088 1.06006 54.4525 1.35483 54.9099 1.94354C55.3182 2.47549 55.5224 3.15567 55.5224 3.98579C55.5224 4.62701 55.4021 5.2064 55.1607 5.72395C54.7363 6.63877 54.0061 7.09703 52.9702 7.09703H50.5332V1.06006ZM52.8143 6.39905C53.0913 6.39905 53.3183 6.37025 53.4962 6.31265C53.8138 6.20592 54.0747 6.00009 54.2772 5.696C54.439 5.45204 54.555 5.13948 54.6262 4.75915C54.6668 4.53214 54.688 4.32122 54.688 4.1264C54.688 3.37845 54.5398 2.79737 54.2425 2.38401C53.9451 1.97064 53.4666 1.76311 52.8059 1.76311H51.3548V6.39905H52.8135H52.8143Z" fill="white"/>
<path d="M56.6409 1.06006H61.0422V1.79954H57.438V3.63257H60.7711V4.33139H57.438V6.37788H61.104V7.09703H56.6409V1.06006Z" fill="white"/>
<path d="M7.84718 15.432H6.54017V17.8072H5.30347V11.749H8.27494C8.69931 11.7575 9.02628 11.8092 9.25498 11.9049C9.48369 12.0006 9.67766 12.1421 9.83691 12.3284C9.9682 12.4817 10.0724 12.652 10.1495 12.8383C10.2266 13.0247 10.2647 13.2373 10.2647 13.4753C10.2647 13.7633 10.1918 14.0462 10.047 14.3241C9.90213 14.6019 9.66242 14.7984 9.32783 14.9136C9.60736 15.0263 9.80557 15.1855 9.92162 15.3922C10.0377 15.5989 10.0961 15.9148 10.0961 16.3392V16.7458C10.0961 17.0228 10.1071 17.21 10.1291 17.3091C10.1622 17.465 10.2384 17.5802 10.3595 17.6547V17.8072H8.96614C8.92802 17.6733 8.90007 17.5649 8.88397 17.4827C8.85094 17.3125 8.83315 17.1388 8.83061 16.961L8.82214 16.3977C8.81621 16.0114 8.7459 15.7539 8.61037 15.6252C8.47484 15.4964 8.22073 15.432 7.84802 15.432H7.84718ZM8.61545 14.33C8.86788 14.2148 8.99324 13.9878 8.99324 13.6481C8.99324 13.2813 8.87127 13.034 8.62731 12.9086C8.49009 12.8375 8.2851 12.8019 8.01066 12.8019H6.53932V14.4291H7.97339C8.258 14.4291 8.4723 14.3961 8.61461 14.3308L8.61545 14.33Z" fill="white"/>
<path d="M15.5704 15.1601H12.6277V16.7179H15.9812V17.8072H11.3901V11.749H15.8329V12.8214H12.6268V14.1081H15.5695V15.1601H15.5704Z" fill="white"/>
<path d="M21.2379 17.3543C20.7855 17.7677 20.2079 17.9752 19.5031 17.9752C18.6315 17.9752 17.9471 17.6957 17.4481 17.1366C16.9492 16.575 16.7002 15.8051 16.7002 14.8267C16.7002 13.7687 16.984 12.9539 17.5506 12.3813C18.0436 11.8823 18.6713 11.6333 19.4328 11.6333C20.4518 11.6333 21.1972 11.9679 21.669 12.6362C21.9291 13.0115 22.0688 13.3884 22.0883 13.7662H20.8228C20.7407 13.4756 20.6348 13.2563 20.506 13.1089C20.2756 12.8463 19.9351 12.7141 19.4828 12.7141C19.0304 12.7141 18.6594 12.8996 18.3935 13.2707C18.1275 13.6417 17.9945 14.1677 17.9945 14.847C17.9945 15.5264 18.1351 16.0354 18.4155 16.3743C18.6967 16.7131 19.0533 16.8817 19.4862 16.8817C19.919 16.8817 20.268 16.7368 20.5009 16.4463C20.6297 16.2904 20.7364 16.0558 20.8211 15.7432H22.0748C21.9655 16.4039 21.686 16.941 21.2362 17.3543H21.2379Z" fill="white"/>
<path d="M23.0532 11.749H24.3187V16.7179H27.319V17.8072H23.0532V11.749Z" fill="white"/>
<path d="M31.729 16.562H29.497L29.0777 17.8072H27.7546L29.9163 11.749H31.3462L33.4917 17.8072H32.1187L31.7282 16.562H31.729ZM31.3758 15.5184L30.6194 13.1348L29.8384 15.5184H31.3758Z" fill="white"/>
<path d="M35.4268 17.8072H34.2468V11.749H36.0883L37.1895 16.512L38.283 11.749H40.1042V17.8072H38.9243V13.71C38.9243 13.5922 38.926 13.427 38.9285 13.2144C38.931 13.0018 38.9327 12.8383 38.9327 12.7231L37.7858 17.8072H36.5567L35.4183 12.7231C35.4183 12.8383 35.42 13.0018 35.4225 13.2144C35.4251 13.427 35.4268 13.5922 35.4268 13.71V17.8072Z" fill="white"/>
<path d="M44.8257 16.562H42.5937L42.1744 17.8072H40.8513L43.013 11.749H44.4428L46.5884 17.8072H45.2153L44.8249 16.562H44.8257ZM44.4725 15.5184L43.7161 13.1348L42.9351 15.5184H44.4725Z" fill="white"/>
<path d="M51.6297 17.3543C51.1774 17.7677 50.5997 17.9752 49.895 17.9752C49.0233 17.9752 48.3389 17.6957 47.84 17.1366C47.3411 16.575 47.092 15.8051 47.092 14.8267C47.092 13.7687 47.3758 12.9539 47.9425 12.3813C48.4355 11.8823 49.0631 11.6333 49.8246 11.6333C50.8437 11.6333 51.5891 11.9679 52.06 12.6362C52.3201 13.0115 52.4598 13.3884 52.4793 13.7662H51.2138C51.1317 13.4756 51.0258 13.2563 50.897 13.1089C50.6666 12.8463 50.3261 12.7141 49.8738 12.7141C49.4214 12.7141 49.0504 12.8996 48.7845 13.2707C48.5185 13.6417 48.3855 14.1677 48.3855 14.847C48.3855 15.5264 48.5261 16.0354 48.8065 16.3743C49.0877 16.7131 49.4443 16.8817 49.8772 16.8817C50.31 16.8817 50.659 16.7368 50.8919 16.4463C51.0207 16.2904 51.1274 16.0558 51.2121 15.7432H52.4658C52.3565 16.4039 52.077 16.941 51.6272 17.3543H51.6297Z" fill="white"/>
<path d="M53.3328 11.749H54.5906V17.8072H53.3328V11.749Z" fill="white"/>
<path d="M58.4568 17.9747C57.5911 17.9747 56.9295 17.7392 56.4713 17.2674C55.8572 16.6897 55.5505 15.8562 55.5505 14.7686C55.5505 13.681 55.8572 12.8263 56.4713 12.2698C56.9287 11.7988 57.5902 11.5625 58.4568 11.5625C59.3233 11.5625 59.984 11.798 60.4423 12.2698C61.053 12.8263 61.3588 13.659 61.3588 14.7686C61.3588 15.8783 61.053 16.6897 60.4423 17.2674C59.9849 17.7384 59.3233 17.9747 58.4568 17.9747ZM59.6528 16.3475C59.9459 15.9774 60.0925 15.4513 60.0925 14.7695C60.0925 14.0876 59.9451 13.5649 59.6503 13.1931C59.3555 12.8221 58.9582 12.6366 58.4568 12.6366C57.9553 12.6366 57.5555 12.8212 57.2565 13.1914C56.9575 13.5616 56.8084 14.0876 56.8084 14.7695C56.8084 15.4513 56.9575 15.9782 57.2565 16.3475C57.5555 16.7168 57.9553 16.9023 58.4568 16.9023C58.9582 16.9023 59.3572 16.7177 59.6528 16.3475Z" fill="white"/>
<path d="M67.2215 17.8072H65.956L63.4817 13.5041V17.8072H62.3018V11.749H63.6291L66.0415 15.9784V11.749H67.2215V17.8072Z" fill="white"/>
<path d="M72.6104 15.1601H69.6677V16.7179H73.0212V17.8072H68.4302V11.749H72.873V12.8214H69.6669V14.1081H72.6095V15.1601H72.6104Z" fill="white"/>
<path d="M76.2017 16.9311C76.5007 16.9311 76.7429 16.8981 76.9293 16.8328C77.2825 16.7066 77.4595 16.4728 77.4595 16.1298C77.4595 15.9299 77.3714 15.7749 77.1969 15.6656C77.0216 15.5589 76.7463 15.464 76.3711 15.3818L75.7298 15.2378C75.0996 15.0955 74.6643 14.9405 74.4228 14.7736C74.0146 14.4941 73.8104 14.057 73.8104 13.4624C73.8104 12.9203 74.0078 12.4688 74.4025 12.1105C74.7972 11.7514 75.3766 11.5718 76.1407 11.5718C76.7793 11.5718 77.3232 11.7412 77.7746 12.0792C78.2253 12.418 78.4616 12.9084 78.4836 13.5522H77.2673C77.2452 13.188 77.0868 12.9288 76.7904 12.7754C76.593 12.6738 76.3482 12.6238 76.0543 12.6238C75.7282 12.6238 75.4681 12.6899 75.2733 12.8212C75.0785 12.9525 74.9819 13.1363 74.9819 13.3718C74.9819 13.5886 75.0776 13.7496 75.2699 13.8571C75.3936 13.9283 75.6562 14.0121 76.0594 14.1079L77.1029 14.3586C77.5603 14.4679 77.9059 14.6152 78.1389 14.7982C78.5006 15.0828 78.6818 15.4953 78.6818 16.0349C78.6818 16.5745 78.4701 17.048 78.0465 17.4139C77.623 17.7799 77.025 17.9628 76.2525 17.9628C75.48 17.9628 74.843 17.7824 74.3907 17.4224C73.9383 17.0624 73.7122 16.5669 73.7122 15.9367H74.9201C74.9582 16.2136 75.0336 16.4203 75.1462 16.5575C75.3521 16.8066 75.7036 16.9319 76.2025 16.9319L76.2017 16.9311Z" fill="white"/>
</svg>
